<svg width="48" height="48" viewBox="0 0 48 48" fill="none" xmlns="http://www.w3.org/2000/svg">
<path d="M23.6291 16.0909L30.5455 22.9855C30.5455 22.8764 30.5455 22.7455 30.5455 22.6364C30.5455 20.9004 29.8558 19.2355 28.6283 18.008C27.4008 16.7805 25.736 16.0909 24 16.0909C23.8691 16.0909 23.76 16.0909 23.6291 16.0909ZM14.2473 17.8364L17.6291 21.2182C17.52 21.6764 17.4545 22.1345 17.4545 22.6364C17.4545 24.3723 18.1442 26.0372 19.3717 27.2647C20.5992 28.4922 22.264 29.1818 24 29.1818C24.48 29.1818 24.96 29.1164 25.4182 29.0073L28.8 32.3891C27.3382 33.1091 25.7236 33.5455 24 33.5455C21.1067 33.5455 18.332 32.3961 16.2861 30.3503C14.2403 28.3044 13.0909 25.5296 13.0909 22.6364C13.0909 20.9127 13.5273 19.2982 14.2473 17.8364ZM2.18182 5.77091L7.15636 10.7455L8.13818 11.7273C4.53818 14.5636 1.70182 18.2727 0 22.6364C3.77455 32.2145 13.0909 39 24 39C27.3818 39 30.6109 38.3455 33.5564 37.1673L34.4945 38.0836L40.8655 44.4545L43.6364 41.6836L4.95273 3M24 11.7273C26.8933 11.7273 29.668 12.8766 31.7139 14.9225C33.7597 16.9683 34.9091 19.7431 34.9091 22.6364C34.9091 24.0327 34.6255 25.3855 34.1236 26.6073L40.5164 33C43.7891 30.2727 46.4073 26.6945 48 22.6364C44.2255 13.0582 34.9091 6.27273 24 6.27273C20.9455 6.27273 18.0218 6.81818 15.2727 7.8L20.0073 12.4909C21.2509 12.0109 22.5818 11.7273 24 11.7273Z" fill="#757575"/>
</svg>
