<svg width="48" height="48" viewBox="0 0 48 48" fill="none" xmlns="http://www.w3.org/2000/svg">
<path d="M24 18.8182C22.264 18.8182 20.5992 19.5078 19.3717 20.7353C18.1442 21.9628 17.4545 23.6277 17.4545 25.3636C17.4545 27.0996 18.1442 28.7645 19.3717 29.992C20.5992 31.2195 22.264 31.9091 24 31.9091C25.736 31.9091 27.4008 31.2195 28.6283 29.992C29.8558 28.7645 30.5455 27.0996 30.5455 25.3636C30.5455 23.6277 29.8558 21.9628 28.6283 20.7353C27.4008 19.5078 25.736 18.8182 24 18.8182ZM24 36.2727C21.1067 36.2727 18.332 35.1234 16.2861 33.0775C14.2403 31.0317 13.0909 28.2569 13.0909 25.3636C13.0909 22.4704 14.2403 19.6956 16.2861 17.6497C18.332 15.6039 21.1067 14.4545 24 14.4545C26.8933 14.4545 29.668 15.6039 31.7139 17.6497C33.7597 19.6956 34.9091 22.4704 34.9091 25.3636C34.9091 28.2569 33.7597 31.0317 31.7139 33.0775C29.668 35.1234 26.8933 36.2727 24 36.2727ZM24 9C13.0909 9 3.77455 15.7855 0 25.3636C3.77455 34.9418 13.0909 41.7273 24 41.7273C34.9091 41.7273 44.2255 34.9418 48 25.3636C44.2255 15.7855 34.9091 9 24 9Z" fill="#757575"/>
</svg>
