<svg width="28" height="28" viewBox="0 0 28 28" fill="none" xmlns="http://www.w3.org/2000/svg">
<path fill-rule="evenodd" clip-rule="evenodd" d="M14.9046 3.20912C16.2248 1.93402 17.993 1.22846 19.8284 1.24441C21.6638 1.26035 23.4194 1.99654 24.7173 3.29439C26.0152 4.59225 26.7513 6.34794 26.7673 8.18332C26.7832 10.0187 26.0777 11.7869 24.8026 13.1071L24.7884 13.1216L21.2885 16.6214C20.5789 17.3313 19.7249 17.8803 18.7844 18.2311C17.8439 18.582 16.839 18.7264 15.8378 18.6547C14.8366 18.583 13.8626 18.2968 12.9817 17.8156C12.1008 17.3343 11.3337 16.6692 10.7325 15.8654C10.3466 15.3495 10.452 14.6183 10.9679 14.2324C11.4839 13.8465 12.215 13.9519 12.601 14.4678C13.0018 15.0037 13.5132 15.4471 14.1004 15.7679C14.6877 16.0887 15.337 16.2795 16.0045 16.3273C16.672 16.3751 17.3419 16.2788 17.9689 16.045C18.5959 15.8111 19.1652 15.4451 19.6383 14.9718L19.6384 14.9717L23.1309 11.4792C23.9768 10.5998 24.4447 9.42398 24.434 8.20359C24.4234 6.98001 23.9326 5.80955 23.0674 4.94431C22.2022 4.07907 21.0317 3.58828 19.8081 3.57765C18.5872 3.56704 17.4108 4.03535 16.5313 4.88192L14.531 6.87065C14.074 7.32493 13.3353 7.32278 12.881 6.86584C12.4268 6.40891 12.4289 5.67022 12.8859 5.21593L14.8925 3.22093L14.9046 3.20912Z" fill="white"/>
<path fill-rule="evenodd" clip-rule="evenodd" d="M9.21558 9.76836C10.156 9.41754 11.161 9.27308 12.1622 9.34479C13.1634 9.41649 14.1374 9.70268 15.0183 10.1839C15.8992 10.6652 16.6662 11.3303 17.2675 12.1341C17.6534 12.65 17.548 13.3811 17.032 13.7671C16.5161 14.153 15.785 14.0476 15.399 13.5317C14.9982 12.9958 14.4868 12.5524 13.8996 12.2316C13.3123 11.9108 12.6629 11.72 11.9955 11.6722C11.328 11.6244 10.6581 11.7207 10.0311 11.9545C9.40412 12.1884 8.83477 12.5544 8.36168 13.0277L4.8691 16.5203C4.02322 17.3997 3.55533 18.5755 3.56593 19.7959C3.57656 21.0195 4.06735 22.1899 4.93259 23.0552C5.79783 23.9204 6.96829 24.4112 8.19187 24.4218C9.41226 24.4324 10.5881 23.9646 11.4675 23.1187L13.4549 21.1312C13.9106 20.6756 14.6493 20.6756 15.1049 21.1312C15.5605 21.5869 15.5605 22.3255 15.1049 22.7812L13.1099 24.7762L13.0954 24.7904C11.7752 26.0655 10.007 26.771 8.1716 26.7551C6.33622 26.7391 4.58053 26.003 3.28267 24.7051C1.98482 23.4072 1.24864 21.6516 1.23269 19.8162C1.21674 17.9808 1.9223 16.2126 3.1974 14.8924L3.21162 14.8779L6.71147 11.3781C6.71142 11.3781 6.71152 11.378 6.71147 11.3781C7.42108 10.6682 8.27519 10.1192 9.21558 9.76836Z" fill="white"/>
</svg>
