<svg width="48" height="48" viewBox="0 0 48 48" fill="none" xmlns="http://www.w3.org/2000/svg">
<path fill-rule="evenodd" clip-rule="evenodd" d="M25.5507 5.50135C27.8139 3.31546 30.8451 2.10593 33.9915 2.13327C37.1379 2.16061 40.1476 3.42263 42.3725 5.64753C44.5974 7.87243 45.8594 10.8822 45.8868 14.0285C45.9141 17.1749 44.7046 20.2061 42.5187 22.4694L42.4943 22.4941L36.4946 28.4939C35.2781 29.7109 33.814 30.652 32.2018 31.2534C30.5896 31.8548 28.8669 32.1024 27.1506 31.9795C25.4342 31.8566 23.7644 31.366 22.2543 30.5409C20.7442 29.7159 19.4293 28.5758 18.3986 27.1979C17.737 26.3134 17.9177 25.06 18.8022 24.3984C19.6867 23.7368 20.94 23.9175 21.6017 24.802C22.2888 25.7206 23.1654 26.4807 24.1721 27.0307C25.1788 27.5807 26.2921 27.9078 27.4363 27.9897C28.5805 28.0717 29.729 27.9066 30.8038 27.5056C31.8786 27.1047 32.8546 26.4773 33.6657 25.666L33.6659 25.6657L39.6529 19.6787C41.103 18.1711 41.9051 16.1554 41.8869 14.0633C41.8687 11.9657 41.0274 9.95922 39.5441 8.47596C38.0608 6.99269 36.0543 6.15134 33.9568 6.13312C31.8637 6.11493 29.8472 6.91774 28.3394 8.36901L24.9102 11.7783C24.1269 12.557 22.8606 12.5533 22.0818 11.77C21.303 10.9867 21.3067 9.72037 22.09 8.9416L25.53 5.5216L25.5507 5.50135Z" fill="#1E1E1E"/>
<path fill-rule="evenodd" clip-rule="evenodd" d="M15.7987 16.746C17.4109 16.1446 19.1336 15.897 20.85 16.0199C22.5663 16.1428 24.2361 16.6334 25.7462 17.4585C27.2563 18.2835 28.5712 19.4236 29.6019 20.8015C30.2635 21.686 30.0829 22.9394 29.1984 23.601C28.3139 24.2626 27.0605 24.0819 26.3989 23.1974C25.7117 22.2788 24.8351 21.5187 23.8284 20.9687C22.8217 20.4187 21.7085 20.0916 20.5642 20.0097C19.42 19.9278 18.2715 20.0928 17.1967 20.4938C16.1219 20.8947 15.1459 21.5221 14.3349 22.3334L8.34758 28.3207C6.89751 29.8283 6.0954 31.844 6.11358 33.9361C6.13181 36.0337 6.97316 38.0402 8.45643 39.5234C9.93969 41.0067 11.9462 41.8481 14.0438 41.8663C16.1359 41.8845 18.1516 41.0824 19.6591 39.6323L23.0662 36.2253C23.8472 35.4442 25.1136 35.4442 25.8946 36.2253C26.6757 37.0063 26.6757 38.2726 25.8946 39.0537L22.4746 42.4737L22.4498 42.4981C20.1866 44.684 17.1554 45.8935 14.009 45.8661C10.8626 45.8388 7.8529 44.5768 5.628 42.3519C3.4031 40.127 2.14108 37.1172 2.11373 33.9709C2.08639 30.8245 3.29593 27.7933 5.48182 25.5301L5.50619 25.5053L11.5059 19.5055C11.5058 19.5056 11.506 19.5054 11.5059 19.5055C12.7224 18.2887 14.1866 17.3474 15.7987 16.746Z" fill="#1E1E1E"/>
</svg>
